<svg xmlns="http://www.w3.org/2000/svg" viewBox="0 0 512 512" role="img" aria-labelledby="title">
  <title id="title">Caddy</title>
  <rect width="512" height="512" rx="112" fill="#1f88ff"/>
  <path fill="#fff" d="M263.6 410.7c-45.3 0-82.8-14.3-112.7-43-29.8-28.7-44.7-65.7-44.7-111.2 0-45.8 14.9-83 44.7-111.6 29.9-28.7 67.4-43 112.7-43 32.3 0 60.9 7.4 85.7 22.2 24.8 14.7 43.3 35.4 55.4 62.1l-66.4 31.7c-6.4-14-15.9-24.7-28.4-32.2-12.4-7.5-27-11.2-43.7-11.2-24.5 0-44.3 7.5-59.5 22.6-15.1 15.1-22.7 34.9-22.7 59.4 0 24.2 7.6 43.8 22.7 58.9 15.2 15.1 35 22.6 59.5 22.6 16.7 0 31.3-3.7 43.7-11.2 12.5-7.5 22-18.2 28.4-32.2l66.4 31.7c-12.1 26.7-30.6 47.5-55.4 62.4-24.8 14.7-53.4 22-85.7 22Z"/>
</svg>
