<svg xmlns="http://www.w3.org/2000/svg" viewBox="0 0 512 512" role="img" aria-labelledby="title">
  <title id="title">Discord</title>
  <rect width="512" height="512" rx="112" fill="#5865f2"/>
  <path fill="#fff" d="M382.2 143.5c-24.1-11.1-49.7-19-76.3-23.5-3.3 6-7.2 14.1-9.8 20.5-28.4-4.3-56.5-4.3-84.3 0-2.7-6.4-6.6-14.5-9.9-20.5-26.8 4.5-52.4 12.5-76.4 23.6-48.3 71.8-61.4 141.8-54.8 210.8 32.2 23.8 63.4 38.2 94 47.7 7.6-10.3 14.3-21.2 20-32.7-11-4.1-21.5-9.2-31.5-15.1 2.6-1.9 5.2-3.9 7.7-5.9 60.8 28.2 126.8 28.2 186.9 0 2.5 2.1 5.1 4 7.7 5.9-10 5.9-20.6 11-31.6 15.1 5.8 11.5 12.5 22.4 20 32.7 30.6-9.5 61.9-23.9 94.1-47.7 7.8-79.9-13.2-149.2-55.8-210.9ZM199.3 311.8c-18.3 0-33.4-16.8-33.4-37.4s14.8-37.4 33.4-37.4c18.7 0 33.7 16.9 33.4 37.4 0 20.6-14.8 37.4-33.4 37.4Zm113.4 0c-18.3 0-33.4-16.8-33.4-37.4s14.8-37.4 33.4-37.4c18.7 0 33.7 16.9 33.4 37.4 0 20.6-14.7 37.4-33.4 37.4Z"/>
</svg>
