<svg xmlns="http://www.w3.org/2000/svg" viewBox="0 0 512 512" role="img" aria-labelledby="title">
  <title id="title">Slack</title>
  <rect width="512" height="512" rx="112" fill="#fff"/>
  <path fill="#36c5f0" d="M168.4 297.8c0 23.1-18.7 41.8-41.8 41.8s-41.8-18.7-41.8-41.8 18.7-41.8 41.8-41.8h41.8v41.8Zm20.9 0c0-23.1 18.7-41.8 41.8-41.8s41.8 18.7 41.8 41.8v104.4c0 23.1-18.7 41.8-41.8 41.8s-41.8-18.7-41.8-41.8V297.8Z"/>
  <path fill="#2eb67d" d="M231.1 168.4c-23.1 0-41.8-18.7-41.8-41.8s18.7-41.8 41.8-41.8 41.8 18.7 41.8 41.8v41.8h-41.8Zm0 20.9c23.1 0 41.8 18.7 41.8 41.8s-18.7 41.8-41.8 41.8H126.6c-23.1 0-41.8-18.7-41.8-41.8s18.7-41.8 41.8-41.8h104.5Z"/>
  <path fill="#ecb22e" d="M343.6 231.1c0-23.1 18.7-41.8 41.8-41.8s41.8 18.7 41.8 41.8-18.7 41.8-41.8 41.8h-41.8v-41.8Zm-20.9 0c0 23.1-18.7 41.8-41.8 41.8s-41.8-18.7-41.8-41.8V126.6c0-23.1 18.7-41.8 41.8-41.8s41.8 18.7 41.8 41.8v104.5Z"/>
  <path fill="#e01e5a" d="M280.9 343.6c23.1 0 41.8 18.7 41.8 41.8s-18.7 41.8-41.8 41.8-41.8-18.7-41.8-41.8v-41.8h41.8Zm0-20.9c-23.1 0-41.8-18.7-41.8-41.8s18.7-41.8 41.8-41.8h104.5c23.1 0 41.8 18.7 41.8 41.8s-18.7 41.8-41.8 41.8H280.9Z"/>
</svg>
